<?xml version="1.0" encoding="UTF-8"?>
<svg fill="#E4E6EB" width="752pt" height="752pt" version="1.1" viewBox="0 0 752 752" xmlns="http://www.w3.org/2000/svg">
 <g>
  <path d="m553.12 408.68-45.465-44.988c-11.367-11.367-19.418-26.52-22.73-44.043v-0.47266c-7.1055-36.938-27.941-68.195-59.672-88.559-15.629-9.9453-32.676-16.574-50.199-19.891 0-2.8398-0.47266-5.2109-0.94531-8.0508-4.2617-23.207-24.625-39.309-47.359-39.309-2.8398 0-5.6836 0.47266-8.9961 0.94531-12.785 2.3672-23.68 9.4727-30.781 20.363-7.1055 10.891-9.9453 23.207-7.5781 35.992 0.47266 2.8398 1.4219 5.2109 2.3672 8.0508-35.52 21.785-60.145 59.672-64.406 102.77-1.4219 13.262-0.94531 26.047 1.8945 38.832 3.3164 16.574 1.8945 32.203-4.2617 46.41l-25.574 57.777c-7.1055 16.102-4.7344 35.047 6.1562 48.777 8.9961 11.84 22.73 18.469 37.414 18.469 2.8398 0 5.6836-0.47266 8.5234-0.94531l286.51-51.145c17.523-3.3164 31.73-15.629 36.938-32.676 5.2109-17.523 0.94922-35.52-11.836-48.305zm-233-196.06c-5.6836 1.4219-10.891 3.3164-16.574 5.2109 0-0.47266-0.47266-0.94531-0.47266-1.8945-2.3672-13.262 6.1562-26.047 19.418-28.414 1.4219-0.47266 2.8398-0.47266 4.7344-0.47266 11.367 0 21.785 8.0508 24.152 19.891v1.4219c-10.418 0.46875-20.836 1.8906-31.258 4.2578z"/>
  <path d="m292.18 575.85c11.84 8.0508 25.574 12.312 39.781 12.312 4.2617 0 8.9961-0.47266 13.262-1.4219 18.469-3.3164 34.57-14.207 44.988-29.363 3.3164-4.7344 5.6836-9.4727 7.5781-14.68l-118.87 21.312c3.7891 4.2617 8.0508 8.5273 13.258 11.84z"/>
 </g>
</svg>
