<?xml version="1.0" encoding="UTF-8"?>
<svg fill="#E4E6EB" width="10pt" height="10pt" version="1.1" viewBox="0 0 752 752" xmlns="http://www.w3.org/2000/svg">
 <g>
  <path d="m234.5 176.82c-31.711 0-57.512 25.797-57.512 57.512 0 31.715 25.801 57.512 57.512 57.512 31.711 0 57.512-25.797 57.512-57.512 0-31.719-25.801-57.512-57.512-57.512z"/>
  <path d="m517.5 176.82c-31.707 0-57.508 25.797-57.508 57.512 0 31.715 25.797 57.512 57.508 57.512 31.715 0 57.516-25.797 57.516-57.512 0-31.719-25.801-57.512-57.516-57.512z"/>
  <path d="m376 176.82c-31.711 0-57.508 25.797-57.508 57.512 0.003906 31.715 25.797 57.504 57.508 57.504s57.516-25.797 57.516-57.512c0.003906-31.715-25.809-57.504-57.516-57.504z"/>
  <path d="m234.5 460.16c-31.711 0-57.512 25.797-57.512 57.512s25.801 57.512 57.512 57.512c31.711 0 57.512-25.797 57.512-57.512s-25.801-57.512-57.512-57.512z"/>
  <path d="m517.5 460.16c-31.707 0-57.508 25.797-57.508 57.512s25.797 57.512 57.508 57.512c31.715 0 57.516-25.797 57.516-57.512s-25.801-57.512-57.516-57.512z"/>
  <path d="m376 460.16c-31.711 0-57.508 25.797-57.508 57.512 0.003906 31.719 25.797 57.508 57.508 57.508s57.516-25.797 57.516-57.512c0.003906-31.715-25.809-57.508-57.516-57.508z"/>
  <path d="m234.5 318.9c-31.711 0-57.512 25.797-57.512 57.508s25.801 57.512 57.512 57.512c31.711 0 57.512-25.797 57.512-57.512 0-31.707-25.801-57.508-57.512-57.508z"/>
  <path d="m517.5 318.9c-31.707 0-57.508 25.797-57.508 57.508s25.797 57.512 57.508 57.512c31.715 0 57.516-25.797 57.516-57.512-0.003906-31.707-25.801-57.508-57.516-57.508z"/>
  <path d="m376 318.9c-31.711 0-57.508 25.797-57.508 57.508s25.797 57.512 57.508 57.512 57.516-25.797 57.516-57.512c0.003906-31.707-25.809-57.508-57.516-57.508z"/>
 </g>
</svg>
